<?xml version="1.0" encoding="UTF-8" standalone="no"?>
<svg width="12px" height="12px" viewBox="0 0 12 12" version="1.1" xmlns="http://www.w3.org/2000/svg" xmlns:xlink="http://www.w3.org/1999/xlink">
    <defs></defs>
    <g id="Icons" stroke="none" stroke-width="1" fill="none" fill-rule="evenodd">
        <g id="Artboard-1" transform="translate(-16.000000, -72.000000)" fill="#FFFFFF">
            <path d="M17.9992489,83.3837598 C18.8272612,83.3837598 19.4984978,82.6847862 19.4984978,81.8225585 C19.4984978,80.9603308 18.8272612,80.2613571 17.9992489,80.2613571 C17.1712366,80.2613571 16.5,80.9603308 16.5,81.8225585 C16.5,82.6847862 17.1712366,83.3837598 17.9992489,83.3837598 Z M23.7463697,83.3837598 L21.6224338,83.3837598 C21.6224338,80.4378152 19.3290421,78.0496552 16.5,78.0496552 L16.5,75.8379533 C20.5020595,75.8379533 23.7463697,79.216326 23.7463697,83.3837598 Z M25.2456186,83.3837598 C25.2456186,78.3540983 21.3300718,74.276752 16.5,74.276752 L16.5,72 C22.5375898,72 27.4320233,77.0966829 27.4320233,83.3837598 L25.2456186,83.3837598 Z" id="feed-icon"></path>
        </g>
    </g>
</svg>
